<svg width="280" height="20" fill="none" xmlns="http://www.w3.org/2000/svg"><path d="M.366 18 7.203.76h3.468L17.435 18H13.38L8.205 3.69h1.392L4.347 18H.367Zm3.883-3.126V11.75h9.401v3.125H4.249ZM19.259 18V.76h2.686l1.148 3.443V18h-3.834Zm11.892 0L20.993 4.985 21.945.76l10.158 13.016L31.151 18Zm0 0-1.026-3.443V.76h3.834V18h-2.808Zm8.724 0v-3.37h4.273c1.042 0 1.954-.203 2.735-.61a4.358 4.358 0 0 0 1.807-1.832c.424-.797.635-1.742.635-2.832 0-1.09-.22-2.027-.66-2.808A4.393 4.393 0 0 0 46.86 4.74c-.765-.424-1.669-.635-2.71-.635h-4.396V.76h4.444c1.303 0 2.5.212 3.59.635a8.184 8.184 0 0 1 2.881 1.783 7.677 7.677 0 0 1 1.905 2.735c.456 1.042.684 2.197.684 3.467 0 1.254-.228 2.41-.684 3.468a7.827 7.827 0 0 1-1.88 2.735 8.682 8.682 0 0 1-2.882 1.782c-1.09.423-2.279.635-3.565.635h-4.37Zm-2.588 0V.76h3.834V18h-3.834Zm21.34-7.106V8.062h3.638c.765 0 1.35-.196 1.758-.586.423-.391.635-.92.635-1.588 0-.618-.204-1.131-.61-1.538-.408-.407-.994-.61-1.759-.61h-3.663V.76h4.103c1.14 0 2.14.22 3.003.66.863.423 1.539 1.017 2.027 1.782.488.765.733 1.645.733 2.638 0 1.009-.245 1.896-.733 2.661-.488.749-1.172 1.335-2.051 1.758-.88.424-1.913.635-3.101.635h-3.98ZM55.696 18V.76h3.833V18h-3.834Zm9.376 0L59.7 10.577l3.516-.953L69.615 18h-4.542Zm6.219 0V.76h3.833V18h-3.833Zm2.93 0v-3.32h9.45V18h-9.45Zm0-7.204V7.598h8.595v3.199h-8.595Zm0-6.739V.76h9.328v3.297h-9.328ZM85.02 18 91.858.76h3.467L102.09 18h-4.053L92.859 3.69h1.392L89 18h-3.98Zm3.882-3.126V11.75h9.401v3.125h-9.4Zm19.853 3.395c-1.416 0-2.637-.228-3.663-.684-1.009-.472-1.937-1.18-2.783-2.125l2.49-2.466a6.53 6.53 0 0 0 1.832 1.49c.684.342 1.473.512 2.368.512.814 0 1.441-.146 1.881-.439.456-.293.683-.7.683-1.221 0-.472-.146-.855-.439-1.148-.293-.293-.684-.545-1.172-.757a17.171 17.171 0 0 0-1.587-.61c-.57-.195-1.14-.415-1.71-.66a8.216 8.216 0 0 1-1.587-.952 4.543 4.543 0 0 1-1.148-1.44c-.293-.586-.439-1.319-.439-2.198 0-1.058.252-1.97.757-2.735.521-.765 1.237-1.343 2.149-1.734.911-.407 1.961-.61 3.15-.61 1.204 0 2.303.211 3.296.635 1.009.423 1.84 1 2.491 1.733l-2.491 2.467c-.521-.537-1.05-.936-1.587-1.197-.521-.26-1.115-.39-1.783-.39-.667 0-1.196.13-1.587.39-.39.244-.586.603-.586 1.075 0 .44.147.797.44 1.074.293.26.675.488 1.147.684.489.195 1.018.39 1.588.586.586.195 1.164.423 1.733.684a6.55 6.55 0 0 1 1.563 1c.488.391.879.896 1.172 1.515.293.602.44 1.35.44 2.246 0 1.644-.586 2.939-1.758 3.883-1.173.928-2.792 1.392-4.86 1.392Zm8.718-5.006v-2.98h18.436v2.98h-18.436ZM141.922 18v-2.98h4.053c.749 0 1.335-.219 1.758-.658.423-.44.635-.977.635-1.612 0-.44-.098-.83-.293-1.172a2.08 2.08 0 0 0-.83-.806c-.342-.195-.765-.293-1.27-.293h-4.053V7.573h3.736c.634 0 1.147-.154 1.538-.464.391-.325.586-.814.586-1.465 0-.635-.195-1.107-.586-1.416-.391-.326-.904-.488-1.538-.488h-3.736V.76h4.468c1.107 0 2.043.204 2.808.61.782.408 1.376.953 1.783 1.637.407.684.61 1.44.61 2.27 0 1.059-.342 1.954-1.025 2.687-.684.733-1.693 1.237-3.028 1.514l.097-1.294c1.449.276 2.564.838 3.346 1.685.797.846 1.196 1.888 1.196 3.125 0 .944-.236 1.799-.708 2.564-.456.749-1.123 1.343-2.002 1.783-.863.44-1.905.659-3.126.659h-4.419Zm-2.931 0V.76h3.785V18h-3.785Zm15.643 0V.76h3.834V18h-3.834Zm2.955 0v-3.37h8.522V18h-8.522Zm18.008.293c-1.302 0-2.507-.228-3.614-.684a9.076 9.076 0 0 1-2.881-1.904 8.676 8.676 0 0 1-1.929-2.833 9.023 9.023 0 0 1-.684-3.516c0-1.27.228-2.442.684-3.516a8.583 8.583 0 0 1 1.905-2.809 8.472 8.472 0 0 1 2.857-1.88c1.107-.456 2.311-.684 3.614-.684 1.286 0 2.474.228 3.565.684a8.417 8.417 0 0 1 2.881 1.88 8.347 8.347 0 0 1 1.929 2.833c.456 1.074.684 2.246.684 3.516a9.023 9.023 0 0 1-.684 3.516 8.876 8.876 0 0 1-1.904 2.833 8.925 8.925 0 0 1-2.882 1.88c-1.091.456-2.271.684-3.541.684Zm-.048-3.492c1.025 0 1.921-.228 2.686-.684a4.64 4.64 0 0 0 1.807-1.904c.423-.83.635-1.783.635-2.857 0-.814-.123-1.547-.367-2.198a4.793 4.793 0 0 0-1.05-1.71 4.336 4.336 0 0 0-1.636-1.098c-.618-.26-1.31-.39-2.075-.39-1.026 0-1.929.227-2.711.683a4.517 4.517 0 0 0-1.782 1.88c-.424.798-.635 1.742-.635 2.833 0 .814.122 1.555.366 2.222a5.252 5.252 0 0 0 1.026 1.734 4.742 4.742 0 0 0 1.636 1.099c.634.26 1.334.39 2.1.39ZM187.042 18V.76h2.734l6.789 10.574h-1.392L201.937.76h2.759V18h-3.834V7.231l.684.171-4.42 6.886h-2.539l-4.395-6.886.659-.17V18h-3.809Zm29.19.293c-1.287 0-2.483-.228-3.59-.684a9 9 0 0 1-2.906-1.904 9.2 9.2 0 0 1-1.929-2.833 9.023 9.023 0 0 1-.684-3.516c0-1.27.228-2.442.684-3.516a8.583 8.583 0 0 1 1.905-2.809 8.733 8.733 0 0 1 2.881-1.88c1.107-.456 2.304-.684 3.59-.684 1.302 0 2.499.228 3.589.684a8.421 8.421 0 0 1 2.882 1.88 8.347 8.347 0 0 1 1.929 2.833c.456 1.074.683 2.246.683 3.516a9.023 9.023 0 0 1-.683 3.516 8.676 8.676 0 0 1-1.929 2.833 8.999 8.999 0 0 1-2.857 1.88c-1.091.456-2.279.684-3.565.684Zm-.049-3.492c1.042 0 1.945-.228 2.71-.684a4.688 4.688 0 0 0 1.783-1.904c.439-.83.659-1.783.659-2.857 0-.814-.122-1.547-.366-2.198a4.793 4.793 0 0 0-1.05-1.71 4.336 4.336 0 0 0-1.636-1.098c-.619-.26-1.319-.39-2.1-.39-1.026 0-1.921.227-2.686.683a4.676 4.676 0 0 0-1.807 1.88c-.424.798-.635 1.742-.635 2.833 0 .814.122 1.555.366 2.222a5.046 5.046 0 0 0 1.05 1.734c.456.472.993.838 1.612 1.099.635.26 1.335.39 2.1.39Zm7.74 4.566-8.058-8.058 2.222-2.222 8.058 8.058-2.222 2.222ZM233.382 18 226.74.76h4.102l5.055 13.944h-1.685L239.34.76h4.053L236.678 18h-3.296Zm12.035 0V.76h3.834V18h-3.834Zm11.997.269c-1.416 0-2.637-.228-3.663-.684-1.009-.472-1.937-1.18-2.783-2.125l2.49-2.466a6.53 6.53 0 0 0 1.832 1.49c.683.342 1.473.512 2.368.512.814 0 1.441-.146 1.881-.439.455-.293.683-.7.683-1.221 0-.472-.146-.855-.439-1.148-.293-.293-.684-.545-1.172-.757a17.197 17.197 0 0 0-1.588-.61 24.717 24.717 0 0 1-1.709-.66 8.186 8.186 0 0 1-1.587-.952 4.543 4.543 0 0 1-1.148-1.44c-.293-.586-.439-1.319-.439-2.198 0-1.058.252-1.97.757-2.735.521-.765 1.237-1.343 2.148-1.734.912-.407 1.962-.61 3.15-.61 1.205 0 2.304.211 3.297.635 1.009.423 1.84 1 2.491 1.733l-2.491 2.467c-.521-.537-1.05-.936-1.587-1.197-.521-.26-1.115-.39-1.783-.39-.667 0-1.196.13-1.587.39-.391.244-.586.603-.586 1.075 0 .44.146.797.44 1.074.293.26.675.488 1.147.684.489.195 1.018.39 1.587.586a17.44 17.44 0 0 1 1.734.684 6.55 6.55 0 0 1 1.563 1c.488.391.879.896 1.172 1.515.293.602.44 1.35.44 2.246 0 1.644-.587 2.939-1.759 3.883-1.172.928-2.791 1.392-4.859 1.392Zm12.64-.269V1.005h3.834V18h-3.834Zm-5.396-13.894V.76h14.626v3.346h-14.626Z" fill="#fff"/></svg>